<svg width="234" height="49" viewBox="0 0 234 49" fill="none" xmlns="http://www.w3.org/2000/svg">
<path d="M21.3875 34.4461L23.6266 33.0526C23.7275 32.9771 23.7979 32.8652 23.8217 32.7424L25.3686 24.7609C25.4152 24.517 25.2778 24.2871 25.0529 24.2288L17.612 22.2959C17.4699 22.2599 17.3155 22.297 17.1969 22.3972L15.4786 23.8561L13.3703 22.682C13.2605 22.6209 13.1262 22.6109 13.0042 22.6552L5.19841 25.4932C4.95694 25.5811 4.81784 25.8491 4.88597 26.0943L7.05063 33.932C7.08111 34.0483 7.15717 34.1446 7.25771 34.2006L9.52995 35.466L9.19603 37.6959C9.17091 37.8611 9.23123 38.0221 9.35203 38.1217L15.5614 43.2377C15.5803 43.2547 15.6026 43.2693 15.6243 43.2813C15.8083 43.3838 16.046 43.3392 16.1954 43.1655L21.4114 37.0997C21.4917 37.0063 21.5362 36.8865 21.5344 36.7624L21.3875 34.4461ZM15.4786 23.8561L21.666 25.8747L15.3029 30.3906L8.63776 26.6788L15.4786 23.8561ZM9.5315 35.4669L7.69805 28.3663L14.3632 32.078L14.7345 39.5625L9.5315 35.4669ZM16.7078 39.4071L16.417 32.1163L22.746 27.5816L21.3866 34.4477L16.7078 39.4071Z" fill="#8A8A8A"/>
<path d="M25.6073 13.599L26.9533 11.319C27.0074 11.2053 27.0148 11.0748 26.9738 10.9573L24.3079 3.32112C24.2258 3.08808 23.9816 2.95571 23.7448 3.01351L15.9091 4.92256C15.7599 4.95984 15.6369 5.06611 15.5791 5.20966L14.7458 7.29582H12.2047C12.0723 7.29582 11.9437 7.35175 11.8542 7.44869L6.127 13.6531C5.94989 13.8451 5.95921 14.1434 6.14751 14.3224L12.1543 20.0495C12.242 20.1353 12.3613 20.1819 12.4825 20.1819H15.2212L16.0564 22.2681C16.1179 22.4228 16.2559 22.5328 16.418 22.5608L24.7516 23.9925C24.7777 23.9981 24.8056 24 24.8317 24C25.0536 24 25.2493 23.8471 25.2978 23.6253L26.9887 15.8791C27.0148 15.7598 26.9943 15.6349 26.9291 15.5286L25.6073 13.599ZM14.7458 7.29582L21.4722 6.06351L17.9319 13.023H9.89852L14.7458 7.29582ZM15.223 20.1819L9.89852 14.932H17.9319L22.108 21.2166L15.223 20.1819ZM23.8436 20.1334L19.8409 13.9775L23.3403 7.01804L25.6073 13.6009L23.8436 20.1334Z" fill="#BBBBBB"/>
<path d="M34.9675 27.1039L37.1677 28.632C37.2784 28.695 37.4095 28.7123 37.5311 28.6796L45.4347 26.559C45.6759 26.4936 45.8277 26.2571 45.787 26.0139L44.445 17.9655C44.4185 17.8122 44.3204 17.6801 44.1799 17.6111L42.1371 16.6148L42.3266 14.0509C42.3364 13.9173 42.2896 13.7834 42.1984 13.6858L36.3652 7.44469C36.1847 7.25167 35.883 7.23884 35.6884 7.41548L29.462 13.0493C29.3689 13.1313 29.313 13.2482 29.304 13.3705L29.0998 16.1338L26.9326 16.8209C26.7719 16.8715 26.6507 17.0025 26.6103 17.164L24.5444 25.4656C24.5368 25.4916 24.5329 25.5196 24.5309 25.546C24.5144 25.7698 24.654 25.9787 24.8743 26.0442L32.564 28.3278C32.6824 28.363 32.81 28.3516 32.9221 28.2937L34.9675 27.1039ZM42.1371 16.6148L42.879 23.4935L36.121 19.4025L36.7199 11.297L42.1371 16.6148ZM29.0997 16.1356L34.7937 11.1547L34.1948 19.2602L27.5424 23.0052L29.0997 16.1356ZM28.5059 24.8373L35.0156 21.2576L41.7767 25.3071L34.9656 27.1037L28.5059 24.8373Z" fill="#D8D8D8"/>
<path d="M23.6986 34.9724L22.0537 37.0867C21.9848 37.1939 21.9605 37.3239 21.9865 37.447L23.6764 45.4537C23.7287 45.6982 23.9567 45.8625 24.2017 45.8351L32.311 44.9304C32.4654 44.9122 32.6026 44.8214 32.6791 44.6848L33.7845 42.6989L36.3344 43.0268C36.4672 43.0439 36.6035 43.0044 36.7058 42.9186L43.2534 37.4316C43.4559 37.2617 43.485 36.9612 43.3192 36.7573L38.0305 30.2353C37.9536 30.1379 37.8399 30.0757 37.7183 30.0601L34.9701 29.7067L34.4011 27.5056C34.3594 27.3424 34.2351 27.2142 34.076 27.1652L25.8983 24.6532C25.8728 24.6442 25.845 24.6388 25.8188 24.6354C25.5962 24.6068 25.38 24.7349 25.3028 24.9513L22.6065 32.5062C22.5649 32.6226 22.5694 32.7506 22.6212 32.8656L23.6986 34.9724ZM33.7845 42.6989L26.8757 43.0677L31.3263 36.5408L39.3875 37.5773L33.7845 42.6989ZM34.9682 29.7065L39.6338 35.6616L31.5726 34.6251L28.1929 27.7799L34.9682 29.7065ZM26.3115 28.6429L29.5338 35.3367L25.1244 41.8688L23.6988 34.9706L26.3115 28.6429Z" fill="#F5F5F5"/>
<path d="M60.952 37.432C59.488 37.432 58.18 37.216 57.028 36.784C55.876 36.352 54.904 35.692 54.112 34.804C53.32 33.916 52.72 32.764 52.312 31.348C51.904 29.932 51.7 28.252 51.7 26.308V13.528H56.668V26.776C56.668 28.36 56.836 29.62 57.172 30.556C57.508 31.492 58 32.164 58.648 32.572C59.296 32.956 60.064 33.148 60.952 33.148C61.864 33.148 62.644 32.956 63.292 32.572C63.94 32.164 64.444 31.492 64.804 30.556C65.164 29.62 65.344 28.36 65.344 26.776V13.528H70.096V26.308C70.096 28.252 69.892 29.932 69.484 31.348C69.1 32.764 68.512 33.916 67.72 34.804C66.952 35.692 65.992 36.352 64.84 36.784C63.712 37.216 62.416 37.432 60.952 37.432ZM99.5159 37V13.528H104.448V37H99.5159ZM134.028 37V28.504L126.935 13.528H132.228L134.496 19.108C134.808 19.996 135.12 20.86 135.432 21.7C135.768 22.54 136.104 23.404 136.439 24.292H136.584C136.944 23.404 137.292 22.54 137.628 21.7C137.964 20.86 138.3 19.996 138.636 19.108L140.868 13.528H146.052L138.96 28.504V37H134.028Z" fill="#F2F2F2"/>
<path d="M75.6799 37V13.528H80.7559L87.2359 25.696L89.6119 30.808H89.7559C89.6359 29.56 89.4919 28.192 89.3239 26.704C89.1799 25.216 89.1079 23.788 89.1079 22.42V13.528H93.8239V37H88.7479L82.2679 24.796L79.8919 19.72H79.7479C79.8679 20.968 79.9999 22.324 80.1439 23.788C80.3119 25.252 80.3959 26.668 80.3959 28.036V37H75.6799Z" fill="#BEBEBE"/>
<path d="M114.777 37V17.668H108.189V13.528H126.297V17.668H119.709V37H114.777Z" fill="#D0D0D0"/>
<path d="M157.312 37V13.348H164.152C165.76 13.348 167.164 13.552 168.364 13.96C169.588 14.344 170.536 14.968 171.208 15.832C171.88 16.672 172.216 17.776 172.216 19.144C172.216 20.32 171.916 21.376 171.316 22.312C170.716 23.248 169.84 23.896 168.688 24.256V24.4C170.152 24.664 171.328 25.276 172.216 26.236C173.128 27.172 173.584 28.456 173.584 30.088C173.584 31.624 173.212 32.908 172.468 33.94C171.724 34.972 170.68 35.74 169.336 36.244C167.992 36.748 166.444 37 164.692 37H157.312ZM159.976 34.876H164.26C166.372 34.876 168.016 34.48 169.192 33.688C170.368 32.896 170.956 31.672 170.956 30.016C170.956 28.504 170.38 27.388 169.228 26.668C168.076 25.924 166.42 25.552 164.26 25.552H159.976V34.876ZM159.976 23.5H163.612C165.724 23.5 167.248 23.14 168.184 22.42C169.12 21.7 169.588 20.716 169.588 19.468C169.588 18.004 169.096 16.972 168.112 16.372C167.128 15.772 165.676 15.472 163.756 15.472H159.976V23.5ZM175.203 37L183.303 13.348H186.255L194.319 37H191.511L187.227 23.608C186.795 22.264 186.375 20.944 185.967 19.648C185.583 18.328 185.187 16.972 184.779 15.58H184.635C184.275 16.972 183.891 18.328 183.483 19.648C183.099 20.944 182.679 22.264 182.223 23.608L177.903 37H175.203ZM179.307 29.548V27.424H190.143V29.548H179.307ZM204.221 37.432C202.565 37.432 201.041 37.108 199.649 36.46C198.257 35.812 197.045 34.96 196.013 33.904L197.633 32.068C198.497 32.98 199.493 33.712 200.621 34.264C201.773 34.816 202.985 35.092 204.257 35.092C205.889 35.092 207.161 34.72 208.073 33.976C208.985 33.208 209.441 32.212 209.441 30.988C209.441 30.148 209.261 29.476 208.901 28.972C208.541 28.444 208.061 28.012 207.461 27.676C206.861 27.316 206.177 26.968 205.409 26.632L201.989 25.12C201.269 24.808 200.537 24.4 199.793 23.896C199.049 23.392 198.425 22.756 197.921 21.988C197.441 21.22 197.201 20.248 197.201 19.072C197.201 17.896 197.513 16.852 198.137 15.94C198.761 15.004 199.625 14.272 200.729 13.744C201.833 13.192 203.081 12.916 204.473 12.916C205.889 12.916 207.185 13.192 208.361 13.744C209.561 14.296 210.557 14.992 211.349 15.832L209.909 17.56C209.213 16.84 208.409 16.276 207.497 15.868C206.609 15.46 205.601 15.256 204.473 15.256C203.105 15.256 201.989 15.592 201.125 16.264C200.285 16.912 199.865 17.8 199.865 18.928C199.865 19.72 200.069 20.368 200.477 20.872C200.885 21.376 201.389 21.796 201.989 22.132C202.613 22.444 203.225 22.732 203.825 22.996L207.245 24.508C208.181 24.892 209.009 25.348 209.729 25.876C210.449 26.404 211.025 27.064 211.457 27.856C211.913 28.648 212.141 29.632 212.141 30.808C212.141 32.032 211.817 33.148 211.169 34.156C210.545 35.164 209.633 35.968 208.433 36.568C207.257 37.144 205.853 37.432 204.221 37.432ZM216.867 37V13.348H230.295V15.616H219.531V23.428H228.603V25.66H219.531V34.732H230.655V37H216.867Z" fill="#AFAFAF"/>
<path d="M150.5 7L150.5 44" stroke="#D5D5D5" stroke-linecap="round"/>
</svg>
